STARTFONT 2.1
FONT -FontForge-Fredoka One-Book-R-Normal--10-100-72-72-P-57-ISO10646-1
SIZE 10 72 72
FONTBOUNDINGBOX 13 12 -1 -2
COMMENT "Generated by fontforge, http://fontforge.sourceforge.net"
COMMENT "Copyright (c) 2011 Milena B Brandao (milenabbrandao@gmail.com), with Reserved Font Name "Fredoka""
STARTPROPERTIES 39
FOUNDRY "FontForge"
FAMILY_NAME "Fredoka One"
WEIGHT_NAME "Book"
SLANT "R"
SETWIDTH_NAME "Normal"
ADD_STYLE_NAME ""
PIXEL_SIZE 10
POINT_SIZE 100
RESOLUTION_X 72
RESOLUTION_Y 72
SPACING "P"
AVERAGE_WIDTH 57
CHARSET_REGISTRY "ISO10646"
CHARSET_ENCODING "1"
FONTNAME_REGISTRY ""
CHARSET_COLLECTIONS "ISO10646-1"
FONT_NAME "FredokaOne-Regular"
FACE_NAME "Fredoka One"
COPYRIGHT "Copyright (c) 2011 Milena B Brandao (milenabbrandao@gmail.com), with Reserved Font Name "Fredoka""
FONT_VERSION "1.001"
FONT_ASCENT 8
FONT_DESCENT 2
UNDERLINE_POSITION -1
UNDERLINE_THICKNESS 1
X_HEIGHT 4
CAP_HEIGHT 7
RAW_ASCENT 800
RAW_DESCENT 200
NORM_SPACE 3
RELATIVE_WEIGHT 40
RELATIVE_SETWIDTH 50
SUPERSCRIPT_X 0
SUPERSCRIPT_Y 4
SUPERSCRIPT_SIZE 6
SUBSCRIPT_X 0
SUBSCRIPT_Y 1
SUBSCRIPT_SIZE 6
AVG_LOWERCASE_WIDTH 57
AVG_UPPERCASE_WIDTH 68
ENDPROPERTIES
CHARS 235
STARTCHAR space
ENCODING 32
SWIDTH 253 0
DWIDTH 3 0
BBX 1 1 0 0
BITMAP
00
ENDCHAR
STARTCHAR exclam
ENCODING 33
SWIDTH 267 0
DWIDTH 3 0
BBX 2 7 0 0
BITMAP
C0
C0
C0
C0
00
C0
C0
ENDCHAR
STARTCHAR quotedbl
ENCODING 34
SWIDTH 429 0
DWIDTH 4 0
BBX 4 3 0 4
BITMAP
F0
D0
50
ENDCHAR
STARTCHAR numbersign
ENCODING 35
SWIDTH 749 0
DWIDTH 7 0
BBX 7 7 0 0
BITMAP
36
24
7E
24
FE
6C
68
ENDCHAR
STARTCHAR dollar
ENCODING 36
SWIDTH 475 0
DWIDTH 5 0
BBX 5 9 0 -1
BITMAP
20
20
70
C0
70
98
F0
20
20
ENDCHAR
STARTCHAR percent
ENCODING 37
SWIDTH 838 0
DWIDTH 8 0
BBX 8 8 0 0
BITMAP
02
74
94
78
0E
17
15
27
ENDCHAR
STARTCHAR ampersand
ENCODING 38
SWIDTH 748 0
DWIDTH 7 0
BBX 7 8 0 0
BITMAP
30
78
78
78
76
FE
DE
7E
ENDCHAR
STARTCHAR quotesingle
ENCODING 39
SWIDTH 208 0
DWIDTH 2 0
BBX 2 3 0 4
BITMAP
C0
C0
40
ENDCHAR
STARTCHAR parenleft
ENCODING 40
SWIDTH 384 0
DWIDTH 4 0
BBX 4 10 0 -2
BITMAP
30
60
40
C0
C0
C0
C0
40
40
30
ENDCHAR
STARTCHAR parenright
ENCODING 41
SWIDTH 384 0
DWIDTH 4 0
BBX 4 10 0 -2
BITMAP
C0
E0
20
20
30
30
20
20
60
C0
ENDCHAR
STARTCHAR asterisk
ENCODING 42
SWIDTH 503 0
DWIDTH 5 0
BBX 5 4 0 3
BITMAP
20
F8
70
50
ENDCHAR
STARTCHAR plus
ENCODING 43
SWIDTH 527 0
DWIDTH 5 0
BBX 5 5 0 0
BITMAP
20
78
F8
20
20
ENDCHAR
STARTCHAR comma
ENCODING 44
SWIDTH 238 0
DWIDTH 2 0
BBX 2 4 0 -2
BITMAP
C0
C0
40
80
ENDCHAR
STARTCHAR hyphen
ENCODING 45
SWIDTH 433 0
DWIDTH 4 0
BBX 4 2 0 1
BITMAP
F0
F0
ENDCHAR
STARTCHAR period
ENCODING 46
SWIDTH 237 0
DWIDTH 2 0
BBX 2 2 0 0
BITMAP
C0
C0
ENDCHAR
STARTCHAR slash
ENCODING 47
SWIDTH 526 0
DWIDTH 5 0
BBX 5 9 0 -1
BITMAP
08
18
10
30
20
60
60
C0
40
ENDCHAR
STARTCHAR zero
ENCODING 48
SWIDTH 608 0
DWIDTH 6 0
BBX 6 7 0 0
BITMAP
78
6C
CC
CC
CC
78
78
ENDCHAR
STARTCHAR one
ENCODING 49
SWIDTH 407 0
DWIDTH 4 0
BBX 4 7 0 0
BITMAP
30
F0
F0
30
30
30
30
ENDCHAR
STARTCHAR two
ENCODING 50
SWIDTH 609 0
DWIDTH 6 0
BBX 6 7 0 0
BITMAP
78
CC
CC
18
70
FC
FC
ENDCHAR
STARTCHAR three
ENCODING 51
SWIDTH 608 0
DWIDTH 6 0
BBX 6 7 0 0
BITMAP
78
4C
3C
38
CC
FC
78
ENDCHAR
STARTCHAR four
ENCODING 52
SWIDTH 592 0
DWIDTH 6 0
BBX 6 7 0 0
BITMAP
6C
6C
CC
FC
FC
0C
08
ENDCHAR
STARTCHAR five
ENCODING 53
SWIDTH 530 0
DWIDTH 5 0
BBX 5 7 0 0
BITMAP
78
40
F0
F8
18
F8
70
ENDCHAR
STARTCHAR six
ENCODING 54
SWIDTH 560 0
DWIDTH 6 0
BBX 5 7 0 0
BITMAP
38
70
C0
F8
C8
F8
78
ENDCHAR
STARTCHAR seven
ENCODING 55
SWIDTH 561 0
DWIDTH 6 0
BBX 5 7 0 0
BITMAP
F8
18
18
30
30
60
60
ENDCHAR
STARTCHAR eight
ENCODING 56
SWIDTH 582 0
DWIDTH 6 0
BBX 6 7 0 0
BITMAP
78
D8
78
78
CC
F8
78
ENDCHAR
STARTCHAR nine
ENCODING 57
SWIDTH 560 0
DWIDTH 6 0
BBX 5 7 0 0
BITMAP
78
D8
F8
78
18
70
E0
ENDCHAR
STARTCHAR colon
ENCODING 58
SWIDTH 238 0
DWIDTH 2 0
BBX 2 5 0 0
BITMAP
C0
C0
00
C0
C0
ENDCHAR
STARTCHAR semicolon
ENCODING 59
SWIDTH 237 0
DWIDTH 2 0
BBX 2 7 0 -2
BITMAP
C0
C0
00
C0
C0
40
80
ENDCHAR
STARTCHAR less
ENCODING 60
SWIDTH 627 0
DWIDTH 6 0
BBX 6 7 0 0
BITMAP
04
1C
70
E0
70
1C
0C
ENDCHAR
STARTCHAR equal
ENCODING 61
SWIDTH 478 0
DWIDTH 5 0
BBX 5 4 0 0
BITMAP
F8
00
F8
70
ENDCHAR
STARTCHAR greater
ENCODING 62
SWIDTH 627 0
DWIDTH 6 0
BBX 6 7 0 0
BITMAP
C0
E0
38
0C
38
F0
C0
ENDCHAR
STARTCHAR question
ENCODING 63
SWIDTH 512 0
DWIDTH 5 0
BBX 5 8 0 0
BITMAP
20
70
D8
18
30
00
20
20
ENDCHAR
STARTCHAR at
ENCODING 64
SWIDTH 908 0
DWIDTH 9 0
BBX 9 8 0 -1
BITMAP
1C00
7F00
5D00
FC80
F480
DD80
4700
3800
ENDCHAR
STARTCHAR A
ENCODING 65
SWIDTH 765 0
DWIDTH 8 0
BBX 8 7 0 0
BITMAP
18
38
3C
6C
7E
C6
C3
ENDCHAR
STARTCHAR B
ENCODING 66
SWIDTH 646 0
DWIDTH 6 0
BBX 6 7 0 0
BITMAP
FC
CC
DC
DC
CC
FC
F8
ENDCHAR
STARTCHAR C
ENCODING 67
SWIDTH 679 0
DWIDTH 7 0
BBX 7 7 0 0
BITMAP
3E
64
C0
C0
C0
7E
3C
ENDCHAR
STARTCHAR D
ENCODING 68
SWIDTH 704 0
DWIDTH 7 0
BBX 7 7 0 0
BITMAP
F8
CC
C6
C6
C6
FC
F8
ENDCHAR
STARTCHAR E
ENCODING 69
SWIDTH 638 0
DWIDTH 6 0
BBX 6 7 0 0
BITMAP
FC
C0
F8
F8
C0
FC
FC
ENDCHAR
STARTCHAR F
ENCODING 70
SWIDTH 637 0
DWIDTH 6 0
BBX 6 7 0 0
BITMAP
FC
C0
F8
F8
C0
C0
C0
ENDCHAR
STARTCHAR G
ENCODING 71
SWIDTH 714 0
DWIDTH 7 0
BBX 7 7 0 0
BITMAP
7E
64
C0
CE
C6
7E
3C
ENDCHAR
STARTCHAR H
ENCODING 72
SWIDTH 699 0
DWIDTH 7 0
BBX 7 7 0 0
BITMAP
C6
C6
C6
FE
C6
C6
C6
ENDCHAR
STARTCHAR I
ENCODING 73
SWIDTH 257 0
DWIDTH 3 0
BBX 2 7 0 0
BITMAP
C0
C0
C0
C0
C0
C0
C0
ENDCHAR
STARTCHAR J
ENCODING 74
SWIDTH 549 0
DWIDTH 5 0
BBX 5 7 0 0
BITMAP
18
18
18
18
18
F8
70
ENDCHAR
STARTCHAR K
ENCODING 75
SWIDTH 639 0
DWIDTH 6 0
BBX 6 7 0 0
BITMAP
CC
D8
F0
F0
F8
DC
CC
ENDCHAR
STARTCHAR L
ENCODING 76
SWIDTH 587 0
DWIDTH 6 0
BBX 6 7 0 0
BITMAP
C0
C0
C0
C0
C0
C0
FC
ENDCHAR
STARTCHAR M
ENCODING 77
SWIDTH 870 0
DWIDTH 9 0
BBX 8 7 0 0
BITMAP
C3
E7
F7
DD
D9
C1
C1
ENDCHAR
STARTCHAR N
ENCODING 78
SWIDTH 720 0
DWIDTH 7 0
BBX 7 7 0 0
BITMAP
C6
E6
F6
DE
DE
CE
C6
ENDCHAR
STARTCHAR O
ENCODING 79
SWIDTH 775 0
DWIDTH 8 0
BBX 8 7 0 0
BITMAP
7C
66
C2
C3
C6
7E
3C
ENDCHAR
STARTCHAR P
ENCODING 80
SWIDTH 632 0
DWIDTH 6 0
BBX 6 7 0 0
BITMAP
F8
CC
CC
FC
F8
C0
C0
ENDCHAR
STARTCHAR Q
ENCODING 81
SWIDTH 830 0
DWIDTH 8 0
BBX 8 7 0 0
BITMAP
7C
66
C2
C3
C6
7F
3F
ENDCHAR
STARTCHAR R
ENCODING 82
SWIDTH 631 0
DWIDTH 6 0
BBX 6 7 0 0
BITMAP
F8
CC
CC
FC
F8
CC
CC
ENDCHAR
STARTCHAR S
ENCODING 83
SWIDTH 583 0
DWIDTH 6 0
BBX 6 7 0 0
BITMAP
78
C8
E0
78
4C
F8
78
ENDCHAR
STARTCHAR T
ENCODING 84
SWIDTH 731 0
DWIDTH 7 0
BBX 7 7 0 0
BITMAP
FE
18
18
18
18
18
10
ENDCHAR
STARTCHAR U
ENCODING 85
SWIDTH 726 0
DWIDTH 7 0
BBX 7 7 0 0
BITMAP
C6
C6
C6
C6
46
7C
3C
ENDCHAR
STARTCHAR V
ENCODING 86
SWIDTH 783 0
DWIDTH 8 0
BBX 8 7 0 0
BITMAP
C3
66
66
2C
3C
18
18
ENDCHAR
STARTCHAR W
ENCODING 87
SWIDTH 999 0
DWIDTH 10 0
BBX 10 7 0 0
BITMAP
CCC0
CC80
7F80
7F80
3700
3300
3300
ENDCHAR
STARTCHAR X
ENCODING 88
SWIDTH 741 0
DWIDTH 7 0
BBX 7 8 0 0
BITMAP
42
C6
6E
3C
38
7C
E6
C6
ENDCHAR
STARTCHAR Y
ENCODING 89
SWIDTH 686 0
DWIDTH 7 0
BBX 7 7 0 0
BITMAP
C6
6C
78
38
10
10
10
ENDCHAR
STARTCHAR Z
ENCODING 90
SWIDTH 643 0
DWIDTH 6 0
BBX 6 7 0 0
BITMAP
FC
1C
18
30
60
7C
FC
ENDCHAR
STARTCHAR bracketleft
ENCODING 91
SWIDTH 348 0
DWIDTH 3 0
BBX 3 10 0 -2
BITMAP
60
E0
C0
C0
C0
C0
C0
C0
C0
E0
ENDCHAR
STARTCHAR backslash
ENCODING 92
SWIDTH 528 0
DWIDTH 5 0
BBX 5 9 0 -1
BITMAP
C0
C0
60
60
30
30
18
18
08
ENDCHAR
STARTCHAR bracketright
ENCODING 93
SWIDTH 348 0
DWIDTH 3 0
BBX 3 10 0 -2
BITMAP
E0
E0
60
60
60
60
60
60
60
E0
ENDCHAR
STARTCHAR asciicircum
ENCODING 94
SWIDTH 526 0
DWIDTH 5 0
BBX 5 3 0 2
BITMAP
70
D8
50
ENDCHAR
STARTCHAR underscore
ENCODING 95
SWIDTH 826 0
DWIDTH 8 0
BBX 8 1 0 -2
BITMAP
FF
ENDCHAR
STARTCHAR grave
ENCODING 96
SWIDTH 482 0
DWIDTH 5 0
BBX 3 2 1 6
BITMAP
80
E0
ENDCHAR
STARTCHAR a
ENCODING 97
SWIDTH 596 0
DWIDTH 6 0
BBX 6 5 0 0
BITMAP
7C
FC
CC
7C
7C
ENDCHAR
STARTCHAR b
ENCODING 98
SWIDTH 592 0
DWIDTH 6 0
BBX 6 8 0 0
BITMAP
40
C0
C0
F8
FC
CC
F8
F8
ENDCHAR
STARTCHAR c
ENCODING 99
SWIDTH 517 0
DWIDTH 5 0
BBX 5 5 0 0
BITMAP
78
F8
C0
F8
78
ENDCHAR
STARTCHAR d
ENCODING 100
SWIDTH 598 0
DWIDTH 6 0
BBX 6 8 0 0
BITMAP
08
0C
0C
7C
FC
CC
7C
7C
ENDCHAR
STARTCHAR e
ENCODING 101
SWIDTH 573 0
DWIDTH 6 0
BBX 5 5 0 0
BITMAP
78
C8
F8
E8
78
ENDCHAR
STARTCHAR f
ENCODING 102
SWIDTH 450 0
DWIDTH 5 0
BBX 4 8 0 0
BITMAP
30
70
60
F0
60
60
60
60
ENDCHAR
STARTCHAR g
ENCODING 103
SWIDTH 585 0
DWIDTH 6 0
BBX 5 7 0 -2
BITMAP
78
D8
C8
78
78
58
78
ENDCHAR
STARTCHAR h
ENCODING 104
SWIDTH 605 0
DWIDTH 6 0
BBX 6 8 0 0
BITMAP
40
C0
C0
F8
FC
CC
CC
CC
ENDCHAR
STARTCHAR i
ENCODING 105
SWIDTH 255 0
DWIDTH 3 0
BBX 2 8 0 0
BITMAP
40
C0
00
C0
C0
C0
C0
C0
ENDCHAR
STARTCHAR j
ENCODING 106
SWIDTH 252 0
DWIDTH 3 0
BBX 3 10 -1 -2
BITMAP
20
60
00
60
60
60
60
60
60
C0
ENDCHAR
STARTCHAR k
ENCODING 107
SWIDTH 536 0
DWIDTH 5 0
BBX 5 8 0 0
BITMAP
40
C0
C0
D8
F8
F0
F8
D8
ENDCHAR
STARTCHAR l
ENCODING 108
SWIDTH 327 0
DWIDTH 3 0
BBX 3 8 0 0
BITMAP
40
C0
C0
C0
C0
C0
E0
60
ENDCHAR
STARTCHAR m
ENCODING 109
SWIDTH 851 0
DWIDTH 9 0
BBX 8 5 0 0
BITMAP
FF
FF
DB
DB
DB
ENDCHAR
STARTCHAR n
ENCODING 110
SWIDTH 606 0
DWIDTH 6 0
BBX 6 5 0 0
BITMAP
F8
FC
CC
CC
CC
ENDCHAR
STARTCHAR o
ENCODING 111
SWIDTH 600 0
DWIDTH 6 0
BBX 6 5 0 0
BITMAP
78
FC
CC
FC
78
ENDCHAR
STARTCHAR p
ENCODING 112
SWIDTH 582 0
DWIDTH 6 0
BBX 6 7 0 -2
BITMAP
F8
F8
CC
F8
F0
C0
C0
ENDCHAR
STARTCHAR q
ENCODING 113
SWIDTH 582 0
DWIDTH 6 0
BBX 5 7 0 -2
BITMAP
78
F8
C8
78
78
08
08
ENDCHAR
STARTCHAR r
ENCODING 114
SWIDTH 457 0
DWIDTH 5 0
BBX 4 5 0 0
BITMAP
F0
D0
C0
C0
C0
ENDCHAR
STARTCHAR s
ENCODING 115
SWIDTH 489 0
DWIDTH 5 0
BBX 5 5 0 0
BITMAP
70
C0
70
58
F0
ENDCHAR
STARTCHAR t
ENCODING 116
SWIDTH 449 0
DWIDTH 4 0
BBX 4 7 0 0
BITMAP
60
60
F0
60
60
70
30
ENDCHAR
STARTCHAR u
ENCODING 117
SWIDTH 606 0
DWIDTH 6 0
BBX 6 5 0 0
BITMAP
CC
CC
CC
7C
7C
ENDCHAR
STARTCHAR v
ENCODING 118
SWIDTH 638 0
DWIDTH 6 0
BBX 6 5 0 0
BITMAP
CC
6C
78
38
30
ENDCHAR
STARTCHAR w
ENCODING 119
SWIDTH 793 0
DWIDTH 8 0
BBX 8 5 0 0
BITMAP
DB
5A
7E
7E
24
ENDCHAR
STARTCHAR x
ENCODING 120
SWIDTH 567 0
DWIDTH 6 0
BBX 6 5 0 0
BITMAP
DC
78
70
78
CC
ENDCHAR
STARTCHAR y
ENCODING 121
SWIDTH 604 0
DWIDTH 6 0
BBX 6 7 0 -2
BITMAP
CC
68
78
38
30
30
60
ENDCHAR
STARTCHAR z
ENCODING 122
SWIDTH 586 0
DWIDTH 6 0
BBX 6 5 0 0
BITMAP
F8
18
30
78
FC
ENDCHAR
STARTCHAR braceleft
ENCODING 123
SWIDTH 381 0
DWIDTH 4 0
BBX 4 10 0 -2
BITMAP
30
70
60
60
60
C0
60
60
60
30
ENDCHAR
STARTCHAR bar
ENCODING 124
SWIDTH 217 0
DWIDTH 2 0
BBX 2 10 0 -2
BITMAP
40
C0
C0
C0
C0
C0
C0
C0
C0
C0
ENDCHAR
STARTCHAR braceright
ENCODING 125
SWIDTH 381 0
DWIDTH 4 0
BBX 4 10 0 -2
BITMAP
C0
C0
60
60
60
70
60
40
60
C0
ENDCHAR
STARTCHAR asciitilde
ENCODING 126
SWIDTH 651 0
DWIDTH 7 0
BBX 6 2 0 2
BITMAP
68
FC
ENDCHAR
STARTCHAR exclamdown
ENCODING 161
SWIDTH 268 0
DWIDTH 3 0
BBX 2 7 0 -2
BITMAP
C0
40
00
C0
C0
C0
C0
ENDCHAR
STARTCHAR cent
ENCODING 162
SWIDTH 434 0
DWIDTH 4 0
BBX 4 8 0 -1
BITMAP
20
20
70
D0
C0
70
20
20
ENDCHAR
STARTCHAR sterling
ENCODING 163
SWIDTH 675 0
DWIDTH 7 0
BBX 7 7 0 0
BITMAP
3C
64
60
F0
60
7C
7E
ENDCHAR
STARTCHAR currency
ENCODING 164
SWIDTH 677 0
DWIDTH 7 0
BBX 7 8 0 0
BITMAP
46
FC
7C
C4
C4
6C
7C
C6
ENDCHAR
STARTCHAR yen
ENCODING 165
SWIDTH 677 0
DWIDTH 7 0
BBX 7 7 0 0
BITMAP
C6
6C
78
7C
10
7C
10
ENDCHAR
STARTCHAR brokenbar
ENCODING 166
SWIDTH 215 0
DWIDTH 2 0
BBX 2 10 0 -2
BITMAP
40
C0
C0
C0
C0
00
C0
C0
C0
C0
ENDCHAR
STARTCHAR section
ENCODING 167
SWIDTH 560 0
DWIDTH 6 0
BBX 5 10 0 -2
BITMAP
30
78
C0
70
F8
C8
78
18
D8
78
ENDCHAR
STARTCHAR dieresis
ENCODING 168
SWIDTH 489 0
DWIDTH 5 0
BBX 5 2 0 6
BITMAP
58
D8
ENDCHAR
STARTCHAR copyright
ENCODING 169
SWIDTH 711 0
DWIDTH 7 0
BBX 7 6 0 1
BITMAP
7C
BA
A2
AA
5A
7C
ENDCHAR
STARTCHAR ordfeminine
ENCODING 170
SWIDTH 445 0
DWIDTH 4 0
BBX 4 4 0 3
BITMAP
70
D0
F0
70
ENDCHAR
STARTCHAR guillemotleft
ENCODING 171
SWIDTH 668 0
DWIDTH 7 0
BBX 7 5 0 0
BITMAP
36
6C
D8
6C
36
ENDCHAR
STARTCHAR logicalnot
ENCODING 172
SWIDTH 526 0
DWIDTH 5 0
BBX 5 3 0 1
BITMAP
F8
08
08
ENDCHAR
STARTCHAR registered
ENCODING 174
SWIDTH 711 0
DWIDTH 7 0
BBX 7 6 0 1
BITMAP
7C
BA
AA
BA
6A
7C
ENDCHAR
STARTCHAR degree
ENCODING 176
SWIDTH 407 0
DWIDTH 4 0
BBX 4 4 0 4
BITMAP
60
F0
D0
60
ENDCHAR
STARTCHAR plusminus
ENCODING 177
SWIDTH 505 0
DWIDTH 5 0
BBX 5 5 0 0
BITMAP
20
F8
20
00
F8
ENDCHAR
STARTCHAR twosuperior
ENCODING 178
SWIDTH 455 0
DWIDTH 5 0
BBX 4 6 0 2
BITMAP
20
70
D0
30
F0
F0
ENDCHAR
STARTCHAR threesuperior
ENCODING 179
SWIDTH 457 0
DWIDTH 5 0
BBX 4 6 0 2
BITMAP
20
F0
50
30
D0
70
ENDCHAR
STARTCHAR acute
ENCODING 180
SWIDTH 605 0
DWIDTH 6 0
BBX 2 2 2 6
BITMAP
40
C0
ENDCHAR
STARTCHAR mu
ENCODING 181
SWIDTH 601 0
DWIDTH 6 0
BBX 6 7 0 -2
BITMAP
CC
CC
CC
FC
FC
C0
C0
ENDCHAR
STARTCHAR paragraph
ENCODING 182
SWIDTH 614 0
DWIDTH 6 0
BBX 6 8 0 -2
BITMAP
FC
EC
EC
2C
2C
2C
2C
2C
ENDCHAR
STARTCHAR periodcentered
ENCODING 183
SWIDTH 237 0
DWIDTH 2 0
BBX 2 2 0 2
BITMAP
C0
C0
ENDCHAR
STARTCHAR cedilla
ENCODING 184
SWIDTH 559 0
DWIDTH 6 0
BBX 2 2 2 -2
BITMAP
C0
80
ENDCHAR
STARTCHAR onesuperior
ENCODING 185
SWIDTH 321 0
DWIDTH 3 0
BBX 3 5 0 2
BITMAP
60
E0
60
60
60
ENDCHAR
STARTCHAR ordmasculine
ENCODING 186
SWIDTH 439 0
DWIDTH 4 0
BBX 4 4 0 3
BITMAP
70
D0
F0
60
ENDCHAR
STARTCHAR guillemotright
ENCODING 187
SWIDTH 669 0
DWIDTH 7 0
BBX 7 5 0 0
BITMAP
D8
6C
36
6C
D8
ENDCHAR
STARTCHAR onequarter
ENCODING 188
SWIDTH 786 0
DWIDTH 8 0
BBX 7 8 0 0
BITMAP
24
E4
68
70
56
2A
2E
42
ENDCHAR
STARTCHAR onehalf
ENCODING 189
SWIDTH 804 0
DWIDTH 8 0
BBX 7 8 0 0
BITMAP
24
E4
68
70
5E
2A
26
4E
ENDCHAR
STARTCHAR threequarters
ENCODING 190
SWIDTH 842 0
DWIDTH 8 0
BBX 8 8 0 0
BITMAP
62
74
24
F8
75
15
27
21
ENDCHAR
STARTCHAR questiondown
ENCODING 191
SWIDTH 511 0
DWIDTH 5 0
BBX 5 7 0 -2
BITMAP
30
20
20
60
C0
D8
70
ENDCHAR
STARTCHAR Agrave
ENCODING 192
SWIDTH 765 0
DWIDTH 8 0
BBX 8 10 0 0
BITMAP
20
38
00
18
38
3C
6C
7E
C6
C3
ENDCHAR
STARTCHAR Aacute
ENCODING 193
SWIDTH 765 0
DWIDTH 8 0
BBX 8 10 0 0
BITMAP
08
1C
00
18
38
3C
6C
7E
C6
C3
ENDCHAR
STARTCHAR Acircumflex
ENCODING 194
SWIDTH 765 0
DWIDTH 8 0
BBX 8 10 0 0
BITMAP
18
3C
00
18
38
3C
6C
7E
C6
C3
ENDCHAR
STARTCHAR Atilde
ENCODING 195
SWIDTH 765 0
DWIDTH 8 0
BBX 8 10 0 0
BITMAP
34
3C
00
18
38
3C
6C
7E
C6
C3
ENDCHAR
STARTCHAR Adieresis
ENCODING 196
SWIDTH 765 0
DWIDTH 8 0
BBX 8 10 0 0
BITMAP
2C
2C
00
18
38
3C
6C
7E
C6
C3
ENDCHAR
STARTCHAR Aring
ENCODING 197
SWIDTH 765 0
DWIDTH 8 0
BBX 8 9 0 0
BITMAP
18
28
18
38
3C
6C
7E
C6
C3
ENDCHAR
STARTCHAR AE
ENCODING 198
SWIDTH 1148 0
DWIDTH 11 0
BBX 11 7 0 0
BITMAP
07E0
0E00
1BC0
3BC0
7E00
FFE0
C3E0
ENDCHAR
STARTCHAR Ccedilla
ENCODING 199
SWIDTH 679 0
DWIDTH 7 0
BBX 7 9 0 -2
BITMAP
3E
64
C0
C0
C0
7E
3C
18
18
ENDCHAR
STARTCHAR Egrave
ENCODING 200
SWIDTH 638 0
DWIDTH 6 0
BBX 6 10 0 0
BITMAP
20
38
00
FC
C0
F8
F8
C0
FC
FC
ENDCHAR
STARTCHAR Eacute
ENCODING 201
SWIDTH 638 0
DWIDTH 6 0
BBX 6 10 0 0
BITMAP
08
38
00
FC
C0
F8
F8
C0
FC
FC
ENDCHAR
STARTCHAR Ecircumflex
ENCODING 202
SWIDTH 638 0
DWIDTH 6 0
BBX 6 10 0 0
BITMAP
30
78
00
FC
C0
F8
F8
C0
FC
FC
ENDCHAR
STARTCHAR Edieresis
ENCODING 203
SWIDTH 638 0
DWIDTH 6 0
BBX 6 10 0 0
BITMAP
68
6C
00
FC
C0
F8
F8
C0
FC
FC
ENDCHAR
STARTCHAR Igrave
ENCODING 204
SWIDTH 267 0
DWIDTH 3 0
BBX 2 10 0 0
BITMAP
80
C0
00
C0
C0
C0
C0
C0
C0
C0
ENDCHAR
STARTCHAR Iacute
ENCODING 205
SWIDTH 269 0
DWIDTH 3 0
BBX 3 10 0 0
BITMAP
20
E0
00
C0
C0
C0
C0
C0
C0
C0
ENDCHAR
STARTCHAR Icircumflex
ENCODING 206
SWIDTH 270 0
DWIDTH 3 0
BBX 4 10 -1 0
BITMAP
20
F0
00
60
60
60
60
60
60
60
ENDCHAR
STARTCHAR Idieresis
ENCODING 207
SWIDTH 268 0
DWIDTH 3 0
BBX 5 10 -1 0
BITMAP
D0
D8
00
60
60
60
60
60
60
20
ENDCHAR
STARTCHAR Eth
ENCODING 208
SWIDTH 775 0
DWIDTH 8 0
BBX 8 7 0 0
BITMAP
7C
6E
62
F3
66
7E
7C
ENDCHAR
STARTCHAR Ntilde
ENCODING 209
SWIDTH 720 0
DWIDTH 7 0
BBX 7 10 0 0
BITMAP
3C
38
00
C6
E6
F6
DE
DE
CE
C6
ENDCHAR
STARTCHAR Ograve
ENCODING 210
SWIDTH 775 0
DWIDTH 8 0
BBX 8 10 0 0
BITMAP
20
38
00
7C
66
C2
C3
C6
7E
3C
ENDCHAR
STARTCHAR Oacute
ENCODING 211
SWIDTH 775 0
DWIDTH 8 0
BBX 8 10 0 0
BITMAP
08
1C
00
7C
66
C2
C3
C6
7E
3C
ENDCHAR
STARTCHAR Ocircumflex
ENCODING 212
SWIDTH 775 0
DWIDTH 8 0
BBX 8 10 0 0
BITMAP
18
3C
00
7C
66
C2
C3
C6
7E
3C
ENDCHAR
STARTCHAR Otilde
ENCODING 213
SWIDTH 775 0
DWIDTH 8 0
BBX 8 10 0 0
BITMAP
14
3C
00
7C
66
C2
C3
C6
7E
3C
ENDCHAR
STARTCHAR Odieresis
ENCODING 214
SWIDTH 775 0
DWIDTH 8 0
BBX 8 10 0 0
BITMAP
2C
2C
00
7C
66
C2
C3
C6
7E
3C
ENDCHAR
STARTCHAR multiply
ENCODING 215
SWIDTH 521 0
DWIDTH 5 0
BBX 5 5 0 0
BITMAP
D8
78
70
F8
48
ENDCHAR
STARTCHAR Oslash
ENCODING 216
SWIDTH 775 0
DWIDTH 8 0
BBX 8 9 0 -1
BITMAP
04
7C
6E
DA
DB
F6
7E
7C
20
ENDCHAR
STARTCHAR Ugrave
ENCODING 217
SWIDTH 726 0
DWIDTH 7 0
BBX 7 10 0 0
BITMAP
20
38
00
C6
C6
C6
C6
46
7C
3C
ENDCHAR
STARTCHAR Uacute
ENCODING 218
SWIDTH 726 0
DWIDTH 7 0
BBX 7 10 0 0
BITMAP
08
1C
00
C6
C6
C6
C6
46
7C
3C
ENDCHAR
STARTCHAR Ucircumflex
ENCODING 219
SWIDTH 726 0
DWIDTH 7 0
BBX 7 10 0 0
BITMAP
18
3C
00
C6
C6
C6
C6
46
7C
3C
ENDCHAR
STARTCHAR Udieresis
ENCODING 220
SWIDTH 726 0
DWIDTH 7 0
BBX 7 10 0 0
BITMAP
2C
6C
00
C6
C6
C6
C6
46
7C
3C
ENDCHAR
STARTCHAR Yacute
ENCODING 221
SWIDTH 686 0
DWIDTH 7 0
BBX 7 10 0 0
BITMAP
08
38
00
C6
6C
78
38
10
10
10
ENDCHAR
STARTCHAR Thorn
ENCODING 222
SWIDTH 634 0
DWIDTH 6 0
BBX 6 7 0 0
BITMAP
C0
F8
CC
CC
FC
F8
C0
ENDCHAR
STARTCHAR germandbls
ENCODING 223
SWIDTH 633 0
DWIDTH 6 0
BBX 6 8 0 0
BITMAP
20
78
D8
D0
D8
CC
DC
DC
ENDCHAR
STARTCHAR agrave
ENCODING 224
SWIDTH 596 0
DWIDTH 6 0
BBX 6 8 0 0
BITMAP
20
38
00
7C
FC
CC
7C
7C
ENDCHAR
STARTCHAR aacute
ENCODING 225
SWIDTH 596 0
DWIDTH 6 0
BBX 6 8 0 0
BITMAP
10
38
00
7C
FC
CC
7C
7C
ENDCHAR
STARTCHAR acircumflex
ENCODING 226
SWIDTH 596 0
DWIDTH 6 0
BBX 6 8 0 0
BITMAP
30
78
00
7C
FC
CC
7C
7C
ENDCHAR
STARTCHAR atilde
ENCODING 227
SWIDTH 596 0
DWIDTH 6 0
BBX 6 8 0 0
BITMAP
28
78
00
7C
FC
CC
7C
7C
ENDCHAR
STARTCHAR adieresis
ENCODING 228
SWIDTH 596 0
DWIDTH 6 0
BBX 6 8 0 0
BITMAP
68
6C
00
7C
FC
CC
7C
7C
ENDCHAR
STARTCHAR aring
ENCODING 229
SWIDTH 596 0
DWIDTH 6 0
BBX 6 8 0 0
BITMAP
10
28
10
7C
FC
CC
7C
7C
ENDCHAR
STARTCHAR ae
ENCODING 230
SWIDTH 910 0
DWIDTH 9 0
BBX 9 5 0 0
BITMAP
FF00
5D80
7F80
CD00
7780
ENDCHAR
STARTCHAR ccedilla
ENCODING 231
SWIDTH 524 0
DWIDTH 5 0
BBX 5 7 0 -2
BITMAP
78
F8
C0
F8
78
30
30
ENDCHAR
STARTCHAR egrave
ENCODING 232
SWIDTH 573 0
DWIDTH 6 0
BBX 5 8 0 0
BITMAP
20
70
00
78
C8
F8
E8
78
ENDCHAR
STARTCHAR eacute
ENCODING 233
SWIDTH 573 0
DWIDTH 6 0
BBX 5 8 0 0
BITMAP
10
38
00
78
C8
F8
E8
78
ENDCHAR
STARTCHAR ecircumflex
ENCODING 234
SWIDTH 573 0
DWIDTH 6 0
BBX 5 8 0 0
BITMAP
30
78
00
78
C8
F8
E8
78
ENDCHAR
STARTCHAR edieresis
ENCODING 235
SWIDTH 573 0
DWIDTH 6 0
BBX 5 8 0 0
BITMAP
58
58
00
78
C8
F8
E8
78
ENDCHAR
STARTCHAR igrave
ENCODING 236
SWIDTH 255 0
DWIDTH 3 0
BBX 2 8 0 0
BITMAP
80
C0
00
C0
C0
C0
C0
C0
ENDCHAR
STARTCHAR iacute
ENCODING 237
SWIDTH 255 0
DWIDTH 3 0
BBX 3 8 0 0
BITMAP
20
E0
00
C0
C0
C0
C0
C0
ENDCHAR
STARTCHAR icircumflex
ENCODING 238
SWIDTH 255 0
DWIDTH 3 0
BBX 4 8 -1 0
BITMAP
60
F0
00
60
60
60
60
60
ENDCHAR
STARTCHAR idieresis
ENCODING 239
SWIDTH 255 0
DWIDTH 3 0
BBX 5 8 -1 0
BITMAP
D0
D8
00
60
60
60
60
60
ENDCHAR
STARTCHAR eth
ENCODING 240
SWIDTH 585 0
DWIDTH 6 0
BBX 6 8 0 0
BITMAP
30
30
28
78
FC
CC
F8
78
ENDCHAR
STARTCHAR ntilde
ENCODING 241
SWIDTH 606 0
DWIDTH 6 0
BBX 6 8 0 0
BITMAP
28
78
00
F8
FC
CC
CC
CC
ENDCHAR
STARTCHAR ograve
ENCODING 242
SWIDTH 600 0
DWIDTH 6 0
BBX 6 8 0 0
BITMAP
20
30
00
78
FC
CC
FC
78
ENDCHAR
STARTCHAR oacute
ENCODING 243
SWIDTH 600 0
DWIDTH 6 0
BBX 6 8 0 0
BITMAP
10
38
00
78
FC
CC
FC
78
ENDCHAR
STARTCHAR ocircumflex
ENCODING 244
SWIDTH 600 0
DWIDTH 6 0
BBX 6 8 0 0
BITMAP
30
78
00
78
FC
CC
FC
78
ENDCHAR
STARTCHAR otilde
ENCODING 245
SWIDTH 600 0
DWIDTH 6 0
BBX 6 8 0 0
BITMAP
28
78
00
78
FC
CC
FC
78
ENDCHAR
STARTCHAR odieresis
ENCODING 246
SWIDTH 600 0
DWIDTH 6 0
BBX 6 8 0 0
BITMAP
48
78
00
78
FC
CC
FC
78
ENDCHAR
STARTCHAR divide
ENCODING 247
SWIDTH 503 0
DWIDTH 5 0
BBX 5 5 0 0
BITMAP
20
00
F8
20
20
ENDCHAR
STARTCHAR oslash
ENCODING 248
SWIDTH 600 0
DWIDTH 6 0
BBX 6 9 0 -2
BITMAP
08
18
78
FC
CC
FC
78
40
40
ENDCHAR
STARTCHAR ugrave
ENCODING 249
SWIDTH 606 0
DWIDTH 6 0
BBX 6 8 0 0
BITMAP
20
70
00
CC
CC
CC
7C
7C
ENDCHAR
STARTCHAR uacute
ENCODING 250
SWIDTH 606 0
DWIDTH 6 0
BBX 6 8 0 0
BITMAP
18
38
00
CC
CC
CC
7C
7C
ENDCHAR
STARTCHAR ucircumflex
ENCODING 251
SWIDTH 606 0
DWIDTH 6 0
BBX 6 8 0 0
BITMAP
30
78
00
CC
CC
CC
7C
7C
ENDCHAR
STARTCHAR udieresis
ENCODING 252
SWIDTH 606 0
DWIDTH 6 0
BBX 6 8 0 0
BITMAP
48
78
00
CC
CC
CC
7C
7C
ENDCHAR
STARTCHAR yacute
ENCODING 253
SWIDTH 604 0
DWIDTH 6 0
BBX 6 10 0 -2
BITMAP
18
38
00
CC
68
78
38
30
30
60
ENDCHAR
STARTCHAR thorn
ENCODING 254
SWIDTH 580 0
DWIDTH 6 0
BBX 6 10 0 -2
BITMAP
C0
C0
C0
F8
F8
CC
F8
F0
C0
C0
ENDCHAR
STARTCHAR ydieresis
ENCODING 255
SWIDTH 604 0
DWIDTH 6 0
BBX 6 10 0 -2
BITMAP
68
68
00
CC
68
78
38
30
30
60
ENDCHAR
STARTCHAR dotlessi
ENCODING 305
SWIDTH 255 0
DWIDTH 3 0
BBX 2 5 0 0
BITMAP
C0
C0
C0
C0
C0
ENDCHAR
STARTCHAR Lslash
ENCODING 321
SWIDTH 687 0
DWIDTH 7 0
BBX 7 7 0 0
BITMAP
60
60
78
F0
60
60
7E
ENDCHAR
STARTCHAR lslash
ENCODING 322
SWIDTH 468 0
DWIDTH 5 0
BBX 5 8 0 0
BITMAP
60
60
60
78
E0
60
70
30
ENDCHAR
STARTCHAR OE
ENCODING 338
SWIDTH 1092 0
DWIDTH 11 0
BBX 11 7 0 0
BITMAP
3FE0
6600
C780
C7C0
C600
7FE0
3FE0
ENDCHAR
STARTCHAR oe
ENCODING 339
SWIDTH 944 0
DWIDTH 9 0
BBX 9 5 0 0
BITMAP
7F80
FD80
CF80
FC80
7F80
ENDCHAR
STARTCHAR Scaron
ENCODING 352
SWIDTH 583 0
DWIDTH 6 0
BBX 6 10 0 0
BITMAP
58
78
00
78
C8
E0
78
4C
F8
78
ENDCHAR
STARTCHAR scaron
ENCODING 353
SWIDTH 489 0
DWIDTH 5 0
BBX 5 8 0 0
BITMAP
50
F0
00
70
C0
70
58
F0
ENDCHAR
STARTCHAR Ydieresis
ENCODING 376
SWIDTH 686 0
DWIDTH 7 0
BBX 7 10 0 0
BITMAP
6C
6C
00
C6
6C
78
38
10
10
10
ENDCHAR
STARTCHAR Zcaron
ENCODING 381
SWIDTH 643 0
DWIDTH 6 0
BBX 6 10 0 0
BITMAP
68
78
00
FC
1C
18
30
60
7C
FC
ENDCHAR
STARTCHAR zcaron
ENCODING 382
SWIDTH 586 0
DWIDTH 6 0
BBX 6 8 0 0
BITMAP
48
78
00
F8
18
30
78
FC
ENDCHAR
STARTCHAR florin
ENCODING 402
SWIDTH 529 0
DWIDTH 5 0
BBX 5 9 0 -2
BITMAP
38
30
78
78
20
20
60
60
E0
ENDCHAR
STARTCHAR circumflex
ENCODING 710
SWIDTH 603 0
DWIDTH 6 0
BBX 4 2 1 6
BITMAP
60
F0
ENDCHAR
STARTCHAR caron
ENCODING 711
SWIDTH 600 0
DWIDTH 6 0
BBX 4 2 1 6
BITMAP
90
F0
ENDCHAR
STARTCHAR dotaccent
ENCODING 729
SWIDTH 285 0
DWIDTH 3 0
BBX 1 2 1 7
BITMAP
80
80
ENDCHAR
STARTCHAR ring
ENCODING 730
SWIDTH 378 0
DWIDTH 4 0
BBX 2 2 1 7
BITMAP
C0
C0
ENDCHAR
STARTCHAR ogonek
ENCODING 731
SWIDTH 570 0
DWIDTH 6 0
BBX 2 2 2 -2
BITMAP
C0
C0
ENDCHAR
STARTCHAR tilde
ENCODING 732
SWIDTH 584 0
DWIDTH 6 0
BBX 4 2 1 6
BITMAP
D0
E0
ENDCHAR
STARTCHAR endash
ENCODING 8211
SWIDTH 561 0
DWIDTH 6 0
BBX 5 2 0 2
BITMAP
78
F8
ENDCHAR
STARTCHAR emdash
ENCODING 8212
SWIDTH 693 0
DWIDTH 7 0
BBX 7 2 0 2
BITMAP
7C
FE
ENDCHAR
STARTCHAR quoteleft
ENCODING 8216
SWIDTH 237 0
DWIDTH 2 0
BBX 2 3 0 4
BITMAP
40
C0
C0
ENDCHAR
STARTCHAR quoteright
ENCODING 8217
SWIDTH 237 0
DWIDTH 2 0
BBX 2 3 0 4
BITMAP
C0
40
C0
ENDCHAR
STARTCHAR quotesinglbase
ENCODING 8218
SWIDTH 237 0
DWIDTH 2 0
BBX 2 4 0 -2
BITMAP
C0
C0
40
80
ENDCHAR
STARTCHAR quotedblleft
ENCODING 8220
SWIDTH 482 0
DWIDTH 5 0
BBX 5 3 0 4
BITMAP
58
D0
D8
ENDCHAR
STARTCHAR quotedblright
ENCODING 8221
SWIDTH 482 0
DWIDTH 5 0
BBX 5 3 0 4
BITMAP
D8
50
D0
ENDCHAR
STARTCHAR quotedblbase
ENCODING 8222
SWIDTH 482 0
DWIDTH 5 0
BBX 5 4 0 -2
BITMAP
D0
D8
50
90
ENDCHAR
STARTCHAR dagger
ENCODING 8224
SWIDTH 527 0
DWIDTH 5 0
BBX 5 9 0 -2
BITMAP
30
30
F8
30
30
30
30
30
20
ENDCHAR
STARTCHAR daggerdbl
ENCODING 8225
SWIDTH 527 0
DWIDTH 5 0
BBX 5 9 0 -2
BITMAP
30
30
F8
30
30
F8
78
30
20
ENDCHAR
STARTCHAR bullet
ENCODING 8226
SWIDTH 342 0
DWIDTH 3 0
BBX 3 3 0 2
BITMAP
40
E0
E0
ENDCHAR
STARTCHAR ellipsis
ENCODING 8230
SWIDTH 911 0
DWIDTH 9 0
BBX 9 2 0 0
BITMAP
C980
C980
ENDCHAR
STARTCHAR perthousand
ENCODING 8240
SWIDTH 1223 0
DWIDTH 12 0
BBX 12 8 0 0
BITMAP
0200
7400
9400
7800
0E60
1770
25D0
2760
ENDCHAR
STARTCHAR guilsinglleft
ENCODING 8249
SWIDTH 383 0
DWIDTH 4 0
BBX 4 5 0 0
BITMAP
30
60
C0
60
30
ENDCHAR
STARTCHAR guilsinglright
ENCODING 8250
SWIDTH 383 0
DWIDTH 4 0
BBX 4 5 0 0
BITMAP
C0
60
70
E0
C0
ENDCHAR
STARTCHAR fraction
ENCODING 8260
SWIDTH 433 0
DWIDTH 4 0
BBX 5 8 0 0
BITMAP
08
08
10
10
20
20
40
C0
ENDCHAR
STARTCHAR Euro
ENCODING 8364
SWIDTH 612 0
DWIDTH 6 0
BBX 6 8 0 0
BITMAP
1C
3C
60
F8
F8
60
7C
3C
ENDCHAR
STARTCHAR trademark
ENCODING 8482
SWIDTH 840 0
DWIDTH 8 0
BBX 8 4 0 2
BITMAP
FF
6F
6B
49
ENDCHAR
STARTCHAR minus
ENCODING 8722
SWIDTH 581 0
DWIDTH 6 0
BBX 6 2 0 2
BITMAP
78
FC
ENDCHAR
STARTCHAR f_f
ENCODING 64256
SWIDTH 803 0
DWIDTH 8 0
BBX 8 8 0 0
BITMAP
33
77
64
FF
64
64
64
64
ENDCHAR
STARTCHAR fi
ENCODING 64257
SWIDTH 709 0
DWIDTH 7 0
BBX 7 8 0 0
BITMAP
36
76
60
F6
66
66
66
66
ENDCHAR
STARTCHAR fl
ENCODING 64258
SWIDTH 774 0
DWIDTH 8 0
BBX 8 8 0 0
BITMAP
36
76
66
F6
66
66
66
67
ENDCHAR
STARTCHAR f_f_i
ENCODING 64259
SWIDTH 1059 0
DWIDTH 11 0
BBX 10 8 0 0
BITMAP
3340
77C0
6400
FFC0
64C0
64C0
64C0
64C0
ENDCHAR
STARTCHAR .notdef
ENCODING -1
SWIDTH 500 0
DWIDTH 5 0
BBX 1 1 0 0
BITMAP
00
ENDCHAR
STARTCHAR .null
ENCODING -1
SWIDTH 0 0
DWIDTH 0 0
BBX 1 1 0 0
BITMAP
00
ENDCHAR
STARTCHAR nonmarkingreturn
ENCODING -1
SWIDTH 333 0
DWIDTH 3 0
BBX 1 1 0 0
BITMAP
00
ENDCHAR
STARTCHAR f_t
ENCODING -1
SWIDTH 814 0
DWIDTH 8 0
BBX 8 8 0 0
BITMAP
30
74
64
FF
65
64
67
67
ENDCHAR
STARTCHAR t_t
ENCODING -1
SWIDTH 794 0
DWIDTH 8 0
BBX 8 7 0 0
BITMAP
64
64
FF
76
64
76
37
ENDCHAR
STARTCHAR l_l
ENCODING -1
SWIDTH 626 0
DWIDTH 6 0
BBX 6 8 0 0
BITMAP
D8
D8
D8
D8
D8
D8
FC
6C
ENDCHAR
STARTCHAR j_j
ENCODING -1
SWIDTH 521 0
DWIDTH 5 0
BBX 6 10 -1 -2
BITMAP
2C
6C
00
6C
6C
6C
6C
6C
6C
D8
ENDCHAR
ENDFONT
